<?xml version="1.0" encoding="UTF-8" standalone="no"?>
<svg
   xmlns:dc="http://purl.org/dc/elements/1.1/"
   xmlns:cc="http://creativecommons.org/ns#"
   xmlns:rdf="http://www.w3.org/1999/02/22-rdf-syntax-ns#"
   xmlns:svg="http://www.w3.org/2000/svg"
   xmlns="http://www.w3.org/2000/svg"
   xmlns:sodipodi="http://sodipodi.sourceforge.net/DTD/sodipodi-0.dtd"
   xmlns:inkscape="http://www.inkscape.org/namespaces/inkscape"
   version="1.0"
   width="1441.0042pt"
   height="387.46625pt"
   viewBox="0 0 1441.0042 387.46625"
   preserveAspectRatio="xMidYMid meet"
   id="svg16"
   sodipodi:docname="logo_white.svg"
   inkscape:version="0.92.4 5da689c313, 2019-01-14">
  <defs
     id="defs20" />
  <sodipodi:namedview
     pagecolor="#ffffff"
     bordercolor="#666666"
     borderopacity="1"
     objecttolerance="10"
     gridtolerance="10"
     guidetolerance="10"
     inkscape:pageopacity="0"
     inkscape:pageshadow="2"
     inkscape:window-width="1920"
     inkscape:window-height="1142"
     id="namedview18"
     showgrid="false"
     inkscape:zoom="0.56785678"
     inkscape:cx="160.45799"
     inkscape:cy="52.707746"
     inkscape:window-x="1920"
     inkscape:window-y="30"
     inkscape:window-maximized="1"
     inkscape:current-layer="svg16"
     inkscape:pagecheckerboard="true"
     fit-margin-top="0"
     fit-margin-left="0"
     fit-margin-right="0"
     fit-margin-bottom="0" />
  <metadata
     id="metadata2">
Created by potrace 1.15, written by Peter Selinger 2001-2017
<rdf:RDF>
  <cc:Work
     rdf:about="">
    <dc:format>image/svg+xml</dc:format>
    <dc:type
       rdf:resource="http://purl.org/dc/dcmitype/StillImage" />
    <dc:title></dc:title>
  </cc:Work>
</rdf:RDF>
</metadata>
  <g
     transform="matrix(0.1,0,0,-0.1,-30.509375,407.72604)"
     id="g14"
     style="fill:#ffffff;fill-opacity:1;stroke:none">
    <path
       d="m 9785,4064 c -127,-28 -228,-91 -265,-164 -20,-40 -1027,-3319 -1037,-3378 -29,-171 321,-351 540,-276 87,29 92,41 208,447 l 104,367 600,-2 600,-3 106,-370 c 104,-361 108,-370 144,-402 96,-83 320,-64 478,41 67,44 103,89 118,148 12,42 2,76 -500,1708 -281,916 -519,1682 -528,1703 -19,44 -84,107 -140,135 -107,55 -297,75 -428,46 z m 373,-1666 c 122,-431 222,-789 222,-795 0,-10 -97,-13 -450,-13 -247,0 -450,3 -450,8 -1,17 445,1582 450,1582 3,0 106,-352 228,-782 z"
       id="path4"
       style="fill:#ffffff;fill-opacity:1"
       inkscape:connector-curvature="0" />
    <path
       d="m 11921,4034 c -101,-27 -175,-94 -208,-188 -17,-48 -18,-143 -17,-1738 1,-928 5,-1699 8,-1713 9,-35 62,-93 107,-116 173,-88 455,-47 537,79 16,24 17,109 22,1199 l 5,1172 310,-580 c 262,-492 316,-587 353,-619 101,-89 265,-75 353,29 19,22 171,285 339,585 l 305,544 5,-1146 c 5,-1125 5,-1148 25,-1180 47,-78 166,-126 315,-126 149,0 256,42 310,122 l 25,36 v 1700 c 0,1922 7,1757 -80,1854 -62,68 -124,94 -245,100 -233,11 -367,-63 -494,-273 -26,-42 -191,-341 -368,-663 -176,-323 -322,-588 -323,-590 -1,-1 -145,257 -320,575 -175,318 -340,616 -368,662 -65,109 -163,213 -231,245 -95,45 -259,59 -365,30 z"
       id="path6"
       style="fill:#ffffff;fill-opacity:1"
       inkscape:connector-curvature="0" />
    <path
       d="m 562,4029 c -116,-19 -228,-102 -251,-185 -12,-43 -2,-1648.4197 -2,-2800 0,0 0.15296,-279.91827 0.15296,-603.82069 0,-130.7926 61.16577,-204.19582 194.84704,-204.19582 147.12431,0 106.58724,-0.77593 396,-0.77593 446,-5 749,-4.20756 845,25.79244 165,51 328,161 515,349 165,164 298,348 399,549 l 42,82 -55,50 c -65,59 -100,116 -121,195 -20,79 -19,139 5,217 45,147 166,249 333,282 l 27,5 v 145 c 0,222 -34,442 -100,648 l -30,93 -72,1 c -166,3 -313,109 -369,267 -37,107 -19,262 41,346 l 22,31 -58,66 c -127,144 -329,303 -467,368 -120,56 -160,64 -346,75 -196,12 -878,11 -949,-1 z m 798,-713 c 256,-46 471,-217 603,-482 41,-82 95,-246 118,-361 27,-136 37,-409 20,-550 -50,-408 -218,-717 -474,-872 -141,-85 -266,-121 -424,-121 h -93 v 1200 1200 h 88 c 48,-1 121,-7 162,-14 z"
       id="path8"
       inkscape:connector-curvature="0"
       sodipodi:nodetypes="cccccccccccccccscccccccccccccccsccccc"
       style="fill:#ffffff;fill-opacity:1" />
    <path
       d="M 2386.7205,3989.2271 C 2356.3029,3958.6305 2339,3926 2354,3864 c 10,-38 176,-209 201,-208 11,1 48,7 83,14 118,23 247,-19 341,-113 154,-153 159,-392 12,-550 l -44,-47 37,-118 c 77,-249 107,-448 107,-717 0,-173 4,-194 31,-195 21,0 201,274 264,402 l 38,77 -36,39 c -122,135 -56,357 121,409 157,45 311,-59 328,-222 15,-146 -99,-274 -249,-280 l -57,-2 -41,-79 c -65,-123 -133,-232 -205,-329 -58,-77 -65,-92 -56,-111 l 10,-22 117,49 c 109,46 281,102 402,129 41,9 52,16 52,31 0,32 25,83 61,124 65,73 173,103 271,73 50,-15 122,-78 151,-132 30,-57 30,-165 0,-222 -64,-120 -186,-171 -317,-132 -40,12 -128,89 -151,132 -10,18 -13,18 -97,-3 -123,-31 -230,-67 -334,-112 l -91,-40 5,-93 c 6,-120 -17,-197 -86,-281 -65,-80 -139,-123 -245,-143 l -84,-16 -52,-103 C 2740,868 2619,696 2456,521 c -47,-51 -89,-103 -92,-117 -12,-46 -7.719,-98.17679 17.0684,-136.91848 C 2397.7489,241.01061 2440,235 2440,235 l 313,-3 c 337,-3 373,1 425,47 17,14 198,307 403,651 204,344 377,631 384,638 9,10 93,-123 395,-625 210,-351 392,-648 403,-661 26,-28 105,-52 172,-52 72,0 196,33 283,76 82,40 181,126 219,191 36,61 43,154 16,214 -11,24 -222,350 -469,724 -248,374 -453,685 -457,692 -4,7 171,293 428,699 240,377 444,703 454,723 30,58 35,121 16,187 -14,49 -28,69 -88,129 -187,184 -514,234 -630,96 -14,-17 -184,-303 -378,-636 -280,-482 -355,-603 -365,-593 -6,7 -168,281 -358,608 -229,392 -360,608 -385,632 -66,63 -102,68 -450,68 -233,-1 -327.6975,6.142 -384.2795,-50.7729 z"
       id="path10"
       inkscape:connector-curvature="0"
       sodipodi:nodetypes="scccccccsccccccccccccccsccccccccccccccccscccccccsccccsccccccccccs"
       style="fill:#ffffff;fill-opacity:1" />
    <path
       d="m 5905,4026 c -44,-20 -83,-60 -105,-108 -19,-42 -20,-85 -20,-1771 0,-1878 -3,-1765 53,-1825 30,-33 101,-67 169,-82 71,-16 236,-8 299,15 58,20 127,78 145,122 11,26 14,162 14,727 v 695 l 213,3 c 131,2 217,-1 224,-7 7,-5 181,-338 388,-739 207,-401 386,-741 398,-756 36,-44 92,-79 147,-92 141,-33 369,90 441,238 16,34 23,66 23,104 0,53 -11,75 -352,704 -194,358 -349,653 -345,657 5,3 26,12 48,19 53,17 149,65 205,103 231,158 373,412 411,740 14,121 6,358 -16,467 -91,455 -396,716 -915,786 -149,19 -1380,20 -1425,0 z m 1303,-592 c 203,-41 325,-162 367,-361 19,-87 19,-278 1,-365 -30,-141 -109,-249 -226,-308 -107,-54 -157,-60 -542,-60 h -348 v 555 555 h 335 c 267,0 352,-3 413,-16 z"
       id="path12"
       style="fill:#ffffff;fill-opacity:1"
       inkscape:connector-curvature="0" />
  </g>
</svg>
